<?xml version="1.0" encoding="UTF-8"?>
<svg version="1.1" xmlns="http://www.w3.org/2000/svg" width="1200" height="1227">
<path d="M0 0 C45.48782353 -0.20593759 90.97559777 -0.3645552 136.46379546 -0.45958797 C141.83239109 -0.47084451 147.20098581 -0.48249339 152.56958008 -0.49438477 C154.17278595 -0.49792596 154.17278595 -0.49792596 155.80837982 -0.50153869 C173.12115138 -0.54071539 190.43365435 -0.61168457 207.74626649 -0.69437516 C225.50668843 -0.77849802 243.26696958 -0.82852032 261.02758259 -0.84679645 C271.98963682 -0.85915424 282.95093196 -0.8982028 293.91275256 -0.9712482 C301.42667817 -1.01877178 308.94021058 -1.03321248 316.45427562 -1.0215124 C320.79175942 -1.01573952 325.12791566 -1.0246715 329.46516418 -1.07284927 C333.43662721 -1.11664214 337.40587018 -1.11886999 341.37743532 -1.08809005 C342.81366505 -1.08428624 344.25003314 -1.09571659 345.6859904 -1.12394864 C356.4100909 -1.32252598 356.4100909 -1.32252598 360.3668164 1.96877682 C362.15766817 4.23661876 363.6035659 6.47496686 365 9 C365.70503662 10.00659668 366.41007324 11.01319336 367.13647461 12.05029297 C367.71921143 12.93861816 368.30194824 13.82694336 368.90234375 14.7421875 C369.56556641 15.74636719 370.22878906 16.75054688 370.91210938 17.78515625 C371.58048828 18.80480469 372.24886719 19.82445313 372.9375 20.875 C377.490449 27.80820071 382.13513882 34.62695339 387.04663086 41.31152344 C390.23624253 45.70147516 393.27148294 50.19393011 396.3125 54.6875 C397.62865831 56.62516844 398.94506607 58.56266745 400.26171875 60.5 C400.89899902 61.4384375 401.5362793 62.376875 402.19287109 63.34375 C404.65782621 66.96692098 407.13895294 70.57878162 409.625 74.1875 C413.59378673 79.95121541 417.55017866 85.72327067 421.5 91.5 C426.87347434 99.357916 432.26089022 107.2061111 437.65722656 115.04833984 C439.93908519 118.36491764 442.21945755 121.6825171 444.5 125 C445.41665976 126.33333808 446.33332642 127.66667142 447.25 129 C467.41666667 158.33333333 487.58333333 187.66666667 507.75 217 C508.20358887 217.6597583 508.65717773 218.3195166 509.12451172 218.99926758 C510.04283361 220.33502333 510.9611278 221.67079812 511.87939453 223.0065918 C514.14551157 226.30301745 516.41208059 229.59913027 518.6796875 232.89453125 C524.18518464 240.89670733 529.67634388 248.90854995 535.15917969 256.92626953 C539.98034499 263.97489904 544.81630573 271.013269 549.65722656 278.04833984 C551.93908519 281.36491764 554.21945755 284.6825171 556.5 288 C557.41665976 289.33333808 558.33332642 290.66667142 559.25 292 C575.75 316 592.25 340 608.75 364 C609.20358887 364.6597583 609.65717773 365.3195166 610.12451172 365.99926758 C611.04283361 367.33502333 611.9611278 368.67079812 612.87939453 370.0065918 C615.14551157 373.30301745 617.41208059 376.59913027 619.6796875 379.89453125 C625.18518464 387.89670733 630.67634388 395.90854995 636.15917969 403.92626953 C640.52592464 410.3105284 644.90393129 416.68695303 649.2890625 423.05859375 C651.20346459 425.84043737 653.11438101 428.62464156 655.0234375 431.41015625 C655.52149902 432.13630127 656.01956055 432.86244629 656.53271484 433.6105957 C657.48424121 434.99798764 658.43512702 436.3858192 659.38525391 437.77416992 C661.14616937 440.34027339 662.89996546 442.87150736 664.8125 445.328125 C666 447 666 447 666 449 C671.03408097 445.25670903 674.67182147 440.85037112 678.578125 435.9609375 C680.96315907 433.04504101 683.44588616 430.26827866 686 427.5 C690.11378909 423.0301488 693.97087297 418.40955107 697.78515625 413.68359375 C700.66480887 410.19449084 703.70693876 406.87003079 706.75390625 403.52734375 C709.06187598 400.93037607 711.25555863 398.26595987 713.4375 395.5625 C717.29708603 390.79003797 721.37199991 386.26890891 725.52734375 381.75390625 C728.74709519 378.16792716 731.75905176 374.43298508 734.78515625 370.68359375 C737.66480887 367.19449084 740.70693876 363.87003079 743.75390625 360.52734375 C746.06187598 357.93037607 748.25555863 355.26595987 750.4375 352.5625 C754.29708603 347.79003797 758.37199991 343.26890891 762.52734375 338.75390625 C765.74709519 335.16792716 768.75905176 331.43298508 771.78515625 327.68359375 C774.66480887 324.19449084 777.70693876 320.87003079 780.75390625 317.52734375 C783.06187598 314.93037607 785.25555863 312.26595987 787.4375 309.5625 C791.29708603 304.79003797 795.37199991 300.26890891 799.52734375 295.75390625 C802.74709519 292.16792716 805.75905176 288.43298508 808.78515625 284.68359375 C811.66480887 281.19449084 814.70693876 277.87003079 817.75390625 274.52734375 C820.06187598 271.93037607 822.25555863 269.26595987 824.4375 266.5625 C828.29708603 261.79003797 832.37199991 257.26890891 836.52734375 252.75390625 C839.74709519 249.16792716 842.75905176 245.43298508 845.78515625 241.68359375 C848.66480887 238.19449084 851.70693876 234.87003079 854.75390625 231.52734375 C857.06187598 228.93037607 859.25555863 226.26595987 861.4375 223.5625 C865.29708603 218.79003797 869.37199991 214.26890891 873.52734375 209.75390625 C876.74709519 206.16792716 879.75905176 202.43298508 882.78515625 198.68359375 C885.66480887 195.19449084 888.70693876 191.87003079 891.75390625 188.52734375 C894.06187598 185.93037607 896.25555863 183.26595987 898.4375 180.5625 C902.29708603 175.79003797 906.37199991 171.26890891 910.52734375 166.75390625 C913.74709519 163.16792716 916.75905176 159.43298508 919.78515625 155.68359375 C921.95632827 153.05291443 924.20241357 150.52057576 926.5 148 C929.61458668 144.58260628 932.5918662 141.0947765 935.5 137.5 C939.11149134 133.03579543 942.88660694 128.76997886 946.75390625 124.52734375 C949.06187598 121.93037607 951.25555863 119.26595987 953.4375 116.5625 C957.29708603 111.79003797 961.37199991 107.26890891 965.52734375 102.75390625 C968.74709519 99.16792716 971.75905176 95.43298508 974.78515625 91.68359375 C977.66480887 88.19449084 980.70693876 84.87003079 983.75390625 81.52734375 C986.06187598 78.93037607 988.25555863 76.26595987 990.4375 73.5625 C994.29708603 68.79003797 998.37199991 64.26890891 1002.52734375 59.75390625 C1005.74709519 56.16792716 1008.75905176 52.43298508 1011.78515625 48.68359375 C1014.66480887 45.19449084 1017.70693876 41.87003079 1020.75390625 38.52734375 C1023.06187598 35.93037607 1025.25555863 33.26595987 1027.4375 30.5625 C1031.28954619 25.79936114 1035.35510982 21.2860274 1039.50390625 16.78125 C1042.83741066 13.06692271 1045.97062274 9.2072805 1049.08984375 5.3125 C1053.38632384 0.11103535 1053.38632384 0.11103535 1056.04020214 -0.36914349 C1056.82649156 -0.36637811 1057.61278097 -0.36361273 1058.42289734 -0.36076355 C1059.32733582 -0.36488754 1060.23177429 -0.36901154 1061.16362 -0.3732605 C1062.15336319 -0.36247467 1063.14310638 -0.35168884 1064.1628418 -0.34057617 C1065.20691193 -0.34101425 1066.25098206 -0.34145233 1067.32669067 -0.34190369 C1070.78438898 -0.33981043 1074.24160494 -0.31645355 1077.69921875 -0.29296875 C1080.09389481 -0.28737472 1082.48857429 -0.28310371 1084.883255 -0.28010559 C1091.19130911 -0.26864169 1097.49915655 -0.23916101 1103.80712891 -0.20599365 C1110.24183354 -0.17532618 1116.6765715 -0.16160735 1123.11132812 -0.14648438 C1135.74097367 -0.11429297 1148.37047585 -0.06365307 1161 0 C1158.89483491 3.59958622 1156.72322001 6.57260652 1153.875 9.625 C1150.62912126 13.16500368 1147.51709748 16.76303365 1144.5 20.5 C1140.88850866 24.96420457 1137.11339306 29.23002114 1133.24609375 33.47265625 C1130.93812402 36.06962393 1128.74444137 38.73404013 1126.5625 41.4375 C1122.70291397 46.20996203 1118.62800009 50.73109109 1114.47265625 55.24609375 C1111.25290481 58.83207284 1108.24094824 62.56701492 1105.21484375 66.31640625 C1102.33519113 69.80550916 1099.29306124 73.12996921 1096.24609375 76.47265625 C1093.93812402 79.06962393 1091.74444137 81.73404013 1089.5625 84.4375 C1085.70291397 89.20996203 1081.62800009 93.73109109 1077.47265625 98.24609375 C1074.25290481 101.83207284 1071.24094824 105.56701492 1068.21484375 109.31640625 C1065.33519113 112.80550916 1062.29306124 116.12996921 1059.24609375 119.47265625 C1056.93812402 122.06962393 1054.74444137 124.73404013 1052.5625 127.4375 C1048.70291397 132.20996203 1044.62800009 136.73109109 1040.47265625 141.24609375 C1037.25290481 144.83207284 1034.24094824 148.56701492 1031.21484375 152.31640625 C1028.33519113 155.80550916 1025.29306124 159.12996921 1022.24609375 162.47265625 C1019.93812402 165.06962393 1017.74444137 167.73404013 1015.5625 170.4375 C1011.70291397 175.20996203 1007.62800009 179.73109109 1003.47265625 184.24609375 C1000.25290481 187.83207284 997.24094824 191.56701492 994.21484375 195.31640625 C991.33519113 198.80550916 988.29306124 202.12996921 985.24609375 205.47265625 C982.93812402 208.06962393 980.74444137 210.73404013 978.5625 213.4375 C974.70291397 218.20996203 970.62800009 222.73109109 966.47265625 227.24609375 C963.25290481 230.83207284 960.24094824 234.56701492 957.21484375 238.31640625 C954.33519113 241.80550916 951.29306124 245.12996921 948.24609375 248.47265625 C945.93812402 251.06962393 943.74444137 253.73404013 941.5625 256.4375 C937.70291397 261.20996203 933.62800009 265.73109109 929.47265625 270.24609375 C926.25290481 273.83207284 923.24094824 277.56701492 920.21484375 281.31640625 C917.33519113 284.80550916 914.29306124 288.12996921 911.24609375 291.47265625 C908.93812402 294.06962393 906.74444137 296.73404013 904.5625 299.4375 C900.70291397 304.20996203 896.62800009 308.73109109 892.47265625 313.24609375 C889.25290481 316.83207284 886.24094824 320.56701492 883.21484375 324.31640625 C880.33519113 327.80550916 877.29306124 331.12996921 874.24609375 334.47265625 C871.93812402 337.06962393 869.74444137 339.73404013 867.5625 342.4375 C863.70291397 347.20996203 859.62800009 351.73109109 855.47265625 356.24609375 C852.25290481 359.83207284 849.24094824 363.56701492 846.21484375 367.31640625 C844.04367173 369.94708557 841.79758643 372.47942424 839.5 375 C836.38541332 378.41739372 833.4081338 381.9052235 830.5 385.5 C826.88850866 389.96420457 823.11339306 394.23002114 819.24609375 398.47265625 C816.93812402 401.06962393 814.74444137 403.73404013 812.5625 406.4375 C808.70291397 411.20996203 804.62800009 415.73109109 800.47265625 420.24609375 C797.25290481 423.83207284 794.24094824 427.56701492 791.21484375 431.31640625 C788.33519113 434.80550916 785.29306124 438.12996921 782.24609375 441.47265625 C779.93812402 444.06962393 777.74444137 446.73404013 775.5625 449.4375 C771.70291397 454.20996203 767.62800009 458.73109109 763.47265625 463.24609375 C760.25290481 466.83207284 757.24094824 470.56701492 754.21484375 474.31640625 C751.33519113 477.80550916 748.29306124 481.12996921 745.24609375 484.47265625 C742.93812402 487.06962393 740.74444137 489.73404013 738.5625 492.4375 C735.46851286 496.26455727 732.2716945 499.94280873 728.9375 503.5625 C724.37235402 508.52057717 720.13265833 513.67833662 716 519 C719.34968393 525.16511448 723.27433858 530.83066593 727.3125 536.5625 C728.75345934 538.62049524 730.19354233 540.67910432 731.6328125 542.73828125 C732.72577637 544.3018335 732.72577637 544.3018335 733.84082031 545.89697266 C737.15487203 550.65970416 740.42448974 555.4522091 743.6875 560.25 C744.61187866 561.60871216 744.61187866 561.60871216 745.55493164 562.99487305 C746.77621787 564.79040751 747.99733091 566.58605978 749.21826172 568.38183594 C757.32661269 580.29660106 765.48746654 592.17563161 773.65722656 604.04833984 C775.93908519 607.36491764 778.21945755 610.6825171 780.5 614 C781.41665976 615.33333808 782.33332642 616.66667142 783.25 618 C803.41666667 647.33333333 823.58333333 676.66666667 843.75 706 C844.4303833 706.98963745 844.4303833 706.98963745 845.12451172 707.99926758 C846.04283361 709.33502333 846.9611278 710.67079812 847.87939453 712.0065918 C850.14551157 715.30301745 852.41208059 718.59913027 854.6796875 721.89453125 C860.18518464 729.89670733 865.67634388 737.90854995 871.15917969 745.92626953 C875.98034499 752.97489904 880.81630573 760.013269 885.65722656 767.04833984 C887.93908519 770.36491764 890.21945755 773.6825171 892.5 777 C893.41665976 778.33333808 894.33332642 779.66667142 895.25 781 C919.08333333 815.66666667 942.91666667 850.33333333 966.75 885 C967.4303833 885.98963745 967.4303833 885.98963745 968.12451172 886.99926758 C969.04283361 888.33502333 969.9611278 889.67079812 970.87939453 891.0065918 C973.14551157 894.30301745 975.41208059 897.59913027 977.6796875 900.89453125 C983.18518464 908.89670733 988.67634388 916.90854995 994.15917969 924.92626953 C998.98034499 931.97489904 1003.81630573 939.013269 1008.65722656 946.04833984 C1010.93908519 949.36491764 1013.21945755 952.6825171 1015.5 956 C1016.41665976 957.33333808 1017.33332642 958.66667142 1018.25 960 C1038.41666667 989.33333333 1058.58333333 1018.66666667 1078.75 1048 C1079.20358887 1048.6597583 1079.65717773 1049.3195166 1080.12451172 1049.99926758 C1081.04283361 1051.33502333 1081.9611278 1052.67079812 1082.87939453 1054.0065918 C1085.14551157 1057.30301745 1087.41208059 1060.59913027 1089.6796875 1063.89453125 C1095.18518464 1071.89670733 1100.67634388 1079.90854995 1106.15917969 1087.92626953 C1110.98034499 1094.97489904 1115.81630573 1102.013269 1120.65722656 1109.04833984 C1122.93908519 1112.36491764 1125.21945755 1115.6825171 1127.5 1119 C1128.41665976 1120.33333808 1129.33332642 1121.66667142 1130.25 1123 C1146.75 1147 1163.25 1171 1179.75 1195 C1180.20455566 1195.6609668 1180.65911133 1196.32193359 1181.12744141 1197.00292969 C1182.03674515 1198.32596502 1182.94528395 1199.64952643 1183.85302734 1200.97363281 C1186.25108456 1204.46939835 1188.66480394 1207.95295233 1191.1015625 1211.421875 C1191.60751953 1212.14632813 1192.11347656 1212.87078125 1192.63476562 1213.6171875 C1193.60516378 1215.00601422 1194.58020009 1216.39161537 1195.56054688 1217.7734375 C1197.68935634 1220.82986704 1199.25175833 1223.35319135 1200 1227 C1154.5975648 1227.38924203 1109.19530643 1227.68872923 1063.79153119 1227.8681106 C1058.42937744 1227.88937222 1053.06722697 1227.91137574 1047.70507812 1227.93383789 C1046.10383958 1227.94052681 1046.10383958 1227.94052681 1044.47025278 1227.94735085 C1027.19282297 1228.02129318 1009.91635624 1228.15531204 992.63949749 1228.31159753 C974.90734507 1228.4706619 957.17569646 1228.5650171 939.44285989 1228.59950441 C928.50299643 1228.62281424 917.56585503 1228.69638059 906.62682977 1228.83457994 C899.1219957 1228.92455423 891.61856533 1228.95157882 884.11323127 1228.92952342 C879.7839096 1228.91864766 875.45933631 1228.93511081 871.13086319 1229.02649307 C845.85555898 1229.53423789 845.85555898 1229.53423789 839.46564388 1225.33418155 C835.49470844 1221.45781597 833.03248133 1217.12459621 830.90218782 1212.04022872 C829.61233736 1209.12333061 827.81448359 1206.65298853 825.93359375 1204.08984375 C824.76684185 1202.37333801 823.60145721 1200.65590204 822.4375 1198.9375 C821.15779851 1197.05452 819.87784904 1195.17170851 818.59765625 1193.2890625 C817.9855127 1192.38833008 817.37336914 1191.48759766 816.74267578 1190.55957031 C814.29824861 1186.96929649 811.83869682 1183.38956766 809.375 1179.8125 C805.40627903 1174.04873916 801.4498215 1168.27672957 797.5 1162.5 C792.12652566 1154.642084 786.73910978 1146.7938889 781.34277344 1138.95166016 C779.06091481 1135.63508236 776.78054245 1132.3174829 774.5 1129 C773.58334024 1127.66666192 772.66667358 1126.33332858 771.75 1125 C751.58333333 1095.66666667 731.41666667 1066.33333333 711.25 1037 C710.5696167 1036.01036255 710.5696167 1036.01036255 709.87548828 1035.00073242 C708.95716639 1033.66497667 708.0388722 1032.32920188 707.12060547 1030.9934082 C704.85448843 1027.69698255 702.58791941 1024.40086973 700.3203125 1021.10546875 C694.81481536 1013.10329267 689.32365612 1005.09145005 683.84082031 997.07373047 C679.01965501 990.02510096 674.18369427 982.986731 669.34277344 975.95166016 C667.06091481 972.63508236 664.78054245 969.3174829 662.5 966 C661.58334024 964.66666192 660.66667358 963.33332858 659.75 962 C635.91666667 927.33333333 612.08333333 892.66666667 588.25 858 C587.5696167 857.01036255 587.5696167 857.01036255 586.87548828 856.00073242 C585.95716639 854.66497667 585.0388722 853.32920188 584.12060547 851.9934082 C581.85448843 848.69698255 579.58791941 845.40086973 577.3203125 842.10546875 C571.81481536 834.10329267 566.32365612 826.09145005 560.84082031 818.07373047 C556.01965501 811.02510096 551.18369427 803.986731 546.34277344 796.95166016 C544.52070983 794.30337352 542.69960633 791.6544275 540.87866211 789.00537109 C539.96303022 787.67351342 539.04717902 786.34180649 538.13110352 785.01025391 C535.79765014 781.6180309 533.46791601 778.22334728 531.14453125 774.82421875 C525.87813077 767.12724132 520.54548355 759.49990899 515 752 C514.46632813 752.66644531 513.93265625 753.33289063 513.3828125 754.01953125 C509.37516409 758.97708941 505.31834172 763.80938744 501 768.5 C496.88621091 772.9698512 493.02912703 777.59044893 489.21484375 782.31640625 C486.33519113 785.80550916 483.29306124 789.12996921 480.24609375 792.47265625 C477.93812402 795.06962393 475.74444137 797.73404013 473.5625 800.4375 C469.70291397 805.20996203 465.62800009 809.73109109 461.47265625 814.24609375 C458.25290481 817.83207284 455.24094824 821.56701492 452.21484375 825.31640625 C449.33519113 828.80550916 446.29306124 832.12996921 443.24609375 835.47265625 C440.93812402 838.06962393 438.74444137 840.73404013 436.5625 843.4375 C432.70291397 848.20996203 428.62800009 852.73109109 424.47265625 857.24609375 C421.25290481 860.83207284 418.24094824 864.56701492 415.21484375 868.31640625 C412.33519113 871.80550916 409.29306124 875.12996921 406.24609375 878.47265625 C403.93812402 881.06962393 401.74444137 883.73404013 399.5625 886.4375 C395.70291397 891.20996203 391.62800009 895.73109109 387.47265625 900.24609375 C384.25290481 903.83207284 381.24094824 907.56701492 378.21484375 911.31640625 C376.04367173 913.94708557 373.79758643 916.47942424 371.5 919 C368.38541332 922.41739372 365.4081338 925.9052235 362.5 929.5 C358.88850866 933.96420457 355.11339306 938.23002114 351.24609375 942.47265625 C348.93812402 945.06962393 346.74444137 947.73404013 344.5625 950.4375 C340.70291397 955.20996203 336.62800009 959.73109109 332.47265625 964.24609375 C329.25290481 967.83207284 326.24094824 971.56701492 323.21484375 975.31640625 C320.33519113 978.80550916 317.29306124 982.12996921 314.24609375 985.47265625 C311.93812402 988.06962393 309.74444137 990.73404013 307.5625 993.4375 C303.70291397 998.20996203 299.62800009 1002.73109109 295.47265625 1007.24609375 C292.25290481 1010.83207284 289.24094824 1014.56701492 286.21484375 1018.31640625 C283.33519113 1021.80550916 280.29306124 1025.12996921 277.24609375 1028.47265625 C274.93812402 1031.06962393 272.74444137 1033.73404013 270.5625 1036.4375 C266.70291397 1041.20996203 262.62800009 1045.73109109 258.47265625 1050.24609375 C255.25290481 1053.83207284 252.24094824 1057.56701492 249.21484375 1061.31640625 C246.33519113 1064.80550916 243.29306124 1068.12996921 240.24609375 1071.47265625 C237.93812402 1074.06962393 235.74444137 1076.73404013 233.5625 1079.4375 C229.70291397 1084.20996203 225.62800009 1088.73109109 221.47265625 1093.24609375 C218.25290481 1096.83207284 215.24094824 1100.56701492 212.21484375 1104.31640625 C209.33519113 1107.80550916 206.29306124 1111.12996921 203.24609375 1114.47265625 C200.93812402 1117.06962393 198.74444137 1119.73404013 196.5625 1122.4375 C192.70291397 1127.20996203 188.62800009 1131.73109109 184.47265625 1136.24609375 C181.25290481 1139.83207284 178.24094824 1143.56701492 175.21484375 1147.31640625 C172.33519113 1150.80550916 169.29306124 1154.12996921 166.24609375 1157.47265625 C163.93812402 1160.06962393 161.74444137 1162.73404013 159.5625 1165.4375 C155.70291397 1170.20996203 151.62800009 1174.73109109 147.47265625 1179.24609375 C144.25290481 1182.83207284 141.24094824 1186.56701492 138.21484375 1190.31640625 C135.33519113 1193.80550916 132.29306124 1197.12996921 129.24609375 1200.47265625 C126.93812402 1203.06962393 124.74444137 1205.73404013 122.5625 1208.4375 C118.54861716 1213.40706923 114.31595347 1218.10922906 109.96875 1222.78515625 C107.97328212 1224.83679121 107.97328212 1224.83679121 107 1227 C71.69 1227 36.38 1227 0 1227 C1.92963609 1222.17590976 4.05352706 1219.48390345 7.5625 1215.875 C12.23028044 1210.95554951 16.60651757 1205.90341687 20.85546875 1200.61328125 C22.99874956 1198.00152377 25.2238033 1195.49634698 27.5 1193 C30.61458668 1189.58260628 33.5918662 1186.0947765 36.5 1182.5 C40.11149134 1178.03579543 43.88660694 1173.76997886 47.75390625 1169.52734375 C50.06187598 1166.93037607 52.25555863 1164.26595987 54.4375 1161.5625 C58.29708603 1156.79003797 62.37199991 1152.26890891 66.52734375 1147.75390625 C69.74709519 1144.16792716 72.75905176 1140.43298508 75.78515625 1136.68359375 C78.66480887 1133.19449084 81.70693876 1129.87003079 84.75390625 1126.52734375 C87.06187598 1123.93037607 89.25555863 1121.26595987 91.4375 1118.5625 C95.29708603 1113.79003797 99.37199991 1109.26890891 103.52734375 1104.75390625 C106.74709519 1101.16792716 109.75905176 1097.43298508 112.78515625 1093.68359375 C115.66480887 1090.19449084 118.70693876 1086.87003079 121.75390625 1083.52734375 C124.06187598 1080.93037607 126.25555863 1078.26595987 128.4375 1075.5625 C132.29708603 1070.79003797 136.37199991 1066.26890891 140.52734375 1061.75390625 C143.74709519 1058.16792716 146.75905176 1054.43298508 149.78515625 1050.68359375 C152.66480887 1047.19449084 155.70693876 1043.87003079 158.75390625 1040.52734375 C161.06187598 1037.93037607 163.25555863 1035.26595987 165.4375 1032.5625 C169.29708603 1027.79003797 173.37199991 1023.26890891 177.52734375 1018.75390625 C180.74709519 1015.16792716 183.75905176 1011.43298508 186.78515625 1007.68359375 C189.66480887 1004.19449084 192.70693876 1000.87003079 195.75390625 997.52734375 C198.06187598 994.93037607 200.25555863 992.26595987 202.4375 989.5625 C206.29708603 984.79003797 210.37199991 980.26890891 214.52734375 975.75390625 C217.74709519 972.16792716 220.75905176 968.43298508 223.78515625 964.68359375 C226.66480887 961.19449084 229.70693876 957.87003079 232.75390625 954.52734375 C235.06187598 951.93037607 237.25555863 949.26595987 239.4375 946.5625 C243.29708603 941.79003797 247.37199991 937.26890891 251.52734375 932.75390625 C254.74709519 929.16792716 257.75905176 925.43298508 260.78515625 921.68359375 C263.66480887 918.19449084 266.70693876 914.87003079 269.75390625 911.52734375 C272.06187598 908.93037607 274.25555863 906.26595987 276.4375 903.5625 C280.29708603 898.79003797 284.37199991 894.26890891 288.52734375 889.75390625 C291.74709519 886.16792716 294.75905176 882.43298508 297.78515625 878.68359375 C300.66480887 875.19449084 303.70693876 871.87003079 306.75390625 868.52734375 C309.06187598 865.93037607 311.25555863 863.26595987 313.4375 860.5625 C317.29708603 855.79003797 321.37199991 851.26890891 325.52734375 846.75390625 C328.74709519 843.16792716 331.75905176 839.43298508 334.78515625 835.68359375 C337.66480887 832.19449084 340.70693876 828.87003079 343.75390625 825.52734375 C346.06187598 822.93037607 348.25555863 820.26595987 350.4375 817.5625 C354.29708603 812.79003797 358.37199991 808.26890891 362.52734375 803.75390625 C365.74709519 800.16792716 368.75905176 796.43298508 371.78515625 792.68359375 C374.66480887 789.19449084 377.70693876 785.87003079 380.75390625 782.52734375 C383.06187598 779.93037607 385.25555863 777.26595987 387.4375 774.5625 C391.29708603 769.79003797 395.37199991 765.26890891 399.52734375 760.75390625 C402.74709519 757.16792716 405.75905176 753.43298508 408.78515625 749.68359375 C411.66480887 746.19449084 414.70693876 742.87003079 417.75390625 739.52734375 C420.06187598 736.93037607 422.25555863 734.26595987 424.4375 731.5625 C428.29708603 726.79003797 432.37199991 722.26890891 436.52734375 717.75390625 C439.74709519 714.16792716 442.75905176 710.43298508 445.78515625 706.68359375 C447.95632827 704.05291443 450.20241357 701.52057576 452.5 699 C455.74771023 695.40800953 458.97420509 691.80255319 462.125 688.125 C463.27355469 686.79855469 463.27355469 686.79855469 464.4453125 685.4453125 C466.19243317 683.20081974 466.19243317 683.20081974 465.9453125 680.99609375 C464.74673444 678.46521197 463.33418561 676.25054412 461.75 673.9375 C461.02941406 672.87917969 460.30882812 671.82085938 459.56640625 670.73046875 C459.1605127 670.14056152 458.75461914 669.5506543 458.33642578 668.94287109 C456.87347831 666.8160651 455.41878968 664.68375039 453.96484375 662.55078125 C447.44916903 653.00062437 440.89643583 643.47577362 434.34277344 633.95166016 C432.06091481 630.63508236 429.78054245 627.3174829 427.5 624 C426.58334024 622.66666192 425.66667358 621.33332858 424.75 620 C404.58333333 590.66666667 384.41666667 561.33333333 364.25 532 C363.79641113 531.3402417 363.34282227 530.6804834 362.87548828 530.00073242 C361.95716639 528.66497667 361.0388722 527.32920188 360.12060547 525.9934082 C357.85448843 522.69698255 355.58791941 519.40086973 353.3203125 516.10546875 C347.81481536 508.10329267 342.32365612 500.09145005 336.84082031 492.07373047 C332.01965501 485.02510096 327.18369427 477.986731 322.34277344 470.95166016 C320.06091481 467.63508236 317.78054245 464.3174829 315.5 461 C314.58334024 459.66666192 313.66667358 458.33332858 312.75 457 C292.58333333 427.66666667 272.41666667 398.33333333 252.25 369 C251.79641113 368.3402417 251.34282227 367.6804834 250.87548828 367.00073242 C249.95716639 365.66497667 249.0388722 364.32920188 248.12060547 362.9934082 C245.85448843 359.69698255 243.58791941 356.40086973 241.3203125 353.10546875 C235.81481536 345.10329267 230.32365612 337.09145005 224.84082031 329.07373047 C220.01965501 322.02510096 215.18369427 314.986731 210.34277344 307.95166016 C208.06091481 304.63508236 205.78054245 301.3174829 203.5 298 C202.58334024 296.66666192 201.66667358 295.33332858 200.75 294 C176.91666667 259.33333333 153.08333333 224.66666667 129.25 190 C128.79641113 189.3402417 128.34282227 188.6804834 127.87548828 188.00073242 C126.95716639 186.66497667 126.0388722 185.32920188 125.12060547 183.9934082 C122.85448843 180.69698255 120.58791941 177.40086973 118.3203125 174.10546875 C112.81481536 166.10329267 107.32365612 158.09145005 101.84082031 150.07373047 C97.01965501 143.02510096 92.18369427 135.986731 87.34277344 128.95166016 C85.06091481 125.63508236 82.78054245 122.3174829 80.5 119 C79.58334024 117.66666192 78.66667358 116.33332858 77.75 115 C28.25 43 28.25 43 26.87451172 40.99926758 C25.9595003 39.66835665 25.04446131 38.33746466 24.12939453 37.0065918 C21.81217419 33.63635196 19.49546068 30.26576567 17.1796875 26.89453125 C16.71473877 26.21793457 16.24979004 25.54133789 15.77075195 24.84423828 C14.84945867 23.50314982 13.92871157 22.16168596 13.00854492 20.81982422 C10.79305667 17.59226339 8.56525809 14.3747164 6.30859375 11.17578125 C5.88723145 10.57596436 5.46586914 9.97614746 5.03173828 9.3581543 C3.88531363 7.72850499 2.7338413 6.10240996 1.58203125 4.4765625 C-0 2 -0 2 0 0 Z M145 80 C146.09982967 81.74153083 147.20141008 83.48195609 148.30371094 85.22192383 C148.91696228 86.19124344 149.53021362 87.16056305 150.16204834 88.15925598 C152.71757181 92.1090813 155.46117688 95.90065837 158.25 99.6875 C162.39048851 105.36557834 166.47461587 111.07144404 170.4375 116.875 C174.52504003 122.86003253 178.65241223 128.81512489 182.8125 134.75 C183.40297119 135.59248291 183.99344238 136.43496582 184.60180664 137.30297852 C185.804488 139.01836906 187.00736965 140.73361919 188.21044922 142.44873047 C196.84384836 154.75691887 205.45290813 167.08167988 214.03417969 179.42626953 C220.09800618 188.14686679 226.18658311 196.84996444 232.28222656 205.54833984 C235.1896209 209.69786428 238.09468001 213.84902306 241 218 C242.16665575 219.66667431 243.33332241 221.33334098 244.5 223 C251.5 233 258.5 243 265.5 253 C266.07733887 253.8247583 266.65467773 254.6495166 267.24951172 255.49926758 C268.41784967 257.16834507 269.58614384 258.83745322 270.75439453 260.5065918 C273.64513489 264.63662338 276.53659854 268.76614446 279.4296875 272.89453125 C286.31728062 282.72500507 293.18294378 292.57042296 300.03417969 302.42626953 C306.09800618 311.14686679 312.18658311 319.84996444 318.28222656 328.54833984 C321.1896209 332.69786428 324.09468001 336.84902306 327 341 C328.16665575 342.66667431 329.33332241 344.33334098 330.5 346 C332.83333333 349.33333333 335.16666667 352.66666667 337.5 356 C338.07733887 356.8247583 338.65467773 357.6495166 339.24951172 358.49926758 C340.41784967 360.16834507 341.58614384 361.83745322 342.75439453 363.5065918 C345.64513489 367.63662338 348.53659854 371.76614446 351.4296875 375.89453125 C358.31728062 385.72500507 365.18294378 395.57042296 372.03417969 405.42626953 C378.09800618 414.14686679 384.18658311 422.84996444 390.28222656 431.54833984 C393.1896209 435.69786428 396.09468001 439.84902306 399 444 C400.16665575 445.66667431 401.33332241 447.33334098 402.5 449 C404.83333333 452.33333333 407.16666667 455.66666667 409.5 459 C410.07733887 459.8247583 410.65467773 460.6495166 411.24951172 461.49926758 C412.41784967 463.16834507 413.58614384 464.83745322 414.75439453 466.5065918 C417.64513489 470.63662338 420.53659854 474.76614446 423.4296875 478.89453125 C430.31728062 488.72500507 437.18294378 498.57042296 444.03417969 508.42626953 C450.09800618 517.14686679 456.18658311 525.84996444 462.28222656 534.54833984 C465.1896209 538.69786428 468.09468001 542.84902306 471 547 C472.16665575 548.66667431 473.33332241 550.33334098 474.5 552 C481.5 562 488.5 572 495.5 582 C496.07733887 582.8247583 496.65467773 583.6495166 497.24951172 584.49926758 C498.41784967 586.16834507 499.58614384 587.83745322 500.75439453 589.5065918 C503.64513489 593.63662338 506.53659854 597.76614446 509.4296875 601.89453125 C516.31728062 611.72500507 523.18294378 621.57042296 530.03417969 631.42626953 C536.09800618 640.14686679 542.18658311 648.84996444 548.28222656 657.54833984 C551.77500481 662.53334256 555.2646291 667.52055381 558.75488281 672.50732422 C561.64548192 676.63709659 564.53676689 680.7663847 567.4296875 684.89453125 C574.31728062 694.72500507 581.18294378 704.57042296 588.03417969 714.42626953 C594.09800618 723.14686679 600.18658311 731.84996444 606.28222656 740.54833984 C609.1896209 744.69786428 612.09468001 748.84902306 615 753 C616.16665575 754.66667431 617.33332241 756.33334098 618.5 758 C625.5 768 632.5 778 639.5 788 C640.07733887 788.8247583 640.65467773 789.6495166 641.24951172 790.49926758 C642.41784967 792.16834507 643.58614384 793.83745322 644.75439453 795.5065918 C647.64513489 799.63662338 650.53659854 803.76614446 653.4296875 807.89453125 C660.31728062 817.72500507 667.18294378 827.57042296 674.03417969 837.42626953 C680.09800618 846.14686679 686.18658311 854.84996444 692.28222656 863.54833984 C695.1896209 867.69786428 698.09468001 871.84902306 701 876 C702.16665575 877.66667431 703.33332241 879.33334098 704.5 881 C711.5 891 718.5 901 725.5 911 C726.07733887 911.8247583 726.65467773 912.6495166 727.24951172 913.49926758 C728.41784967 915.16834507 729.58614384 916.83745322 730.75439453 918.5065918 C733.64513489 922.63662338 736.53659854 926.76614446 739.4296875 930.89453125 C746.31728062 940.72500507 753.18294378 950.57042296 760.03417969 960.42626953 C766.09800618 969.14686679 772.18658311 977.84996444 778.28222656 986.54833984 C781.1896209 990.69786428 784.09468001 994.84902306 787 999 C788.16665575 1000.66667431 789.33332241 1002.33334098 790.5 1004 C792.83333333 1007.33333333 795.16666667 1010.66666667 797.5 1014 C798.07733887 1014.8247583 798.65467773 1015.6495166 799.24951172 1016.49926758 C800.41784967 1018.16834507 801.58614384 1019.83745322 802.75439453 1021.5065918 C805.64513489 1025.63662338 808.53659854 1029.76614446 811.4296875 1033.89453125 C818.31728062 1043.72500507 825.18294378 1053.57042296 832.03417969 1063.42626953 C838.09800618 1072.14686679 844.18658311 1080.84996444 850.28222656 1089.54833984 C853.18962091 1093.6978643 856.09465293 1097.849042 859 1102 C859.57621094 1102.82306641 860.15242187 1103.64613281 860.74609375 1104.49414062 C863.68855183 1108.69718198 866.63017714 1112.9008022 869.5703125 1117.10546875 C875.3064188 1125.30741799 881.04862798 1133.50503134 886.8125 1141.6875 C887.57747803 1142.77550903 887.57747803 1142.77550903 888.35791016 1143.88549805 C890.50872701 1147.08130244 890.50872701 1147.08130244 893 1150 C895.07560806 1150.09683581 897.15457204 1150.12186902 899.23243713 1150.12025452 C899.89074349 1150.12110894 900.54904984 1150.12196337 901.22730488 1150.12284368 C903.44917106 1150.1245003 905.67096295 1150.11897418 907.89282227 1150.11352539 C909.47915648 1150.11324353 911.06549082 1150.11340123 912.65182495 1150.1139679 C916.97188722 1150.11425592 921.29192197 1150.10835837 925.61197782 1150.10139394 C930.12168315 1150.09516125 934.63138905 1150.09455667 939.14109802 1150.09336853 C947.68694374 1150.09025496 956.23277674 1150.08204124 964.77861685 1150.07201904 C974.50517633 1150.06085869 984.23173642 1150.05534765 993.95830071 1150.05032361 C1013.97220759 1150.03985864 1033.98610299 1150.02225871 1054 1150 C1052.89297447 1148.25125985 1051.78474919 1146.50327916 1050.67602539 1144.75561523 C1050.0590126 1143.78212631 1049.44199982 1142.80863739 1048.80628967 1141.8056488 C1046.45169057 1138.14832946 1043.97051805 1134.59744965 1041.4375 1131.0625 C1040.39152032 1129.59143497 1039.34596522 1128.12006799 1038.30078125 1126.6484375 C1037.76146973 1125.89014648 1037.2221582 1125.13185547 1036.66650391 1124.35058594 C1033.80111601 1120.30898696 1030.96356261 1116.24796304 1028.125 1112.1875 C1027.54032959 1111.35162354 1026.95565918 1110.51574707 1026.35327148 1109.65454102 C1025.1628094 1107.95255353 1023.97246144 1106.25048622 1022.78222656 1104.54833984 C1020.43786716 1101.19622705 1018.09205196 1097.84513462 1015.74609375 1094.49414062 C1013.99461646 1091.99231009 1012.24340242 1089.49029544 1010.4921875 1086.98828125 C1008.1858122 1083.69336752 1005.87845381 1080.39914558 1003.5703125 1077.10546875 C996.68271938 1067.27499493 989.81705622 1057.42957704 982.96582031 1047.57373047 C976.90199382 1038.85313321 970.81341689 1030.15003556 964.71777344 1021.45166016 C961.8103791 1017.30213572 958.90531999 1013.15097694 956 1009 C954.83334425 1007.33332569 953.66667759 1005.66665902 952.5 1004 C950.16666667 1000.66666667 947.83333333 997.33333333 945.5 994 C944.92266113 993.1752417 944.34532227 992.3504834 943.75048828 991.50073242 C942.58215033 989.83165493 941.41385616 988.16254678 940.24560547 986.4934082 C937.35486511 982.36337662 934.46340146 978.23385554 931.5703125 974.10546875 C924.68271938 964.27499493 917.81705622 954.42957704 910.96582031 944.57373047 C904.90199382 935.85313321 898.81341689 927.15003556 892.71777344 918.45166016 C889.8103791 914.30213572 886.90531999 910.15097694 884 906 C882.83334425 904.33332569 881.66667759 902.66665902 880.5 901 C878.16666667 897.66666667 875.83333333 894.33333333 873.5 891 C872.92266113 890.1752417 872.34532227 889.3504834 871.75048828 888.50073242 C870.58215033 886.83165493 869.41385616 885.16254678 868.24560547 883.4934082 C865.35486511 879.36337662 862.46340146 875.23385554 859.5703125 871.10546875 C852.68271938 861.27499493 845.81705622 851.42957704 838.96582031 841.57373047 C832.90199382 832.85313321 826.81341689 824.15003556 820.71777344 815.45166016 C817.8103791 811.30213572 814.90531999 807.15097694 812 803 C810.83334425 801.33332569 809.66667759 799.66665902 808.5 798 C801.5 788 794.5 778 787.5 768 C786.92266113 767.1752417 786.34532227 766.3504834 785.75048828 765.50073242 C784.58215033 763.83165493 783.41385616 762.16254678 782.24560547 760.4934082 C779.35486511 756.36337662 776.46340146 752.23385554 773.5703125 748.10546875 C766.68271938 738.27499493 759.81705622 728.42957704 752.96582031 718.57373047 C746.90199382 709.85313321 740.81341689 701.15003556 734.71777344 692.45166016 C731.8103791 688.30213572 728.90531999 684.15097694 726 680 C724.83334425 678.33332569 723.66667759 676.66665902 722.5 675 C720.16666667 671.66666667 717.83333333 668.33333333 715.5 665 C714.92266113 664.1752417 714.34532227 663.3504834 713.75048828 662.50073242 C712.58215033 660.83165493 711.41385616 659.16254678 710.24560547 657.4934082 C707.35486511 653.36337662 704.46340146 649.23385554 701.5703125 645.10546875 C694.68271938 635.27499493 687.81705622 625.42957704 680.96582031 615.57373047 C674.90199382 606.85313321 668.81341689 598.15003556 662.71777344 589.45166016 C659.8103791 585.30213572 656.90531999 581.15097694 654 577 C652.83334425 575.33332569 651.66667759 573.66665902 650.5 572 C643.5 562 636.5 552 629.5 542 C628.92266113 541.1752417 628.34532227 540.3504834 627.75048828 539.50073242 C626.58215033 537.83165493 625.41385616 536.16254678 624.24560547 534.4934082 C621.35486511 530.36337662 618.46340146 526.23385554 615.5703125 522.10546875 C608.68271938 512.27499493 601.81705622 502.42957704 594.96582031 492.57373047 C588.90199382 483.85313321 582.81341689 475.15003556 576.71777344 466.45166016 C573.8103791 462.30213572 570.90531999 458.15097694 568 454 C566.83334425 452.33332569 565.66667759 450.66665902 564.5 449 C562.16666667 445.66666667 559.83333333 442.33333333 557.5 439 C556.92266113 438.1752417 556.34532227 437.3504834 555.75048828 436.50073242 C554.58215033 434.83165493 553.41385616 433.16254678 552.24560547 431.4934082 C549.35486511 427.36337662 546.46340146 423.23385554 543.5703125 419.10546875 C536.68271938 409.27499493 529.81705622 399.42957704 522.96582031 389.57373047 C516.90199382 380.85313321 510.81341689 372.15003556 504.71777344 363.45166016 C501.8103791 359.30213572 498.90531999 355.15097694 496 351 C494.83334425 349.33332569 493.66667759 347.66665902 492.5 346 C485.5 336 478.5 326 471.5 316 C470.92266113 315.1752417 470.34532227 314.3504834 469.75048828 313.50073242 C468.58215033 311.83165493 467.41385616 310.16254678 466.24560547 308.4934082 C463.35486511 304.36337662 460.46340146 300.23385554 457.5703125 296.10546875 C450.68271938 286.27499493 443.81705622 276.42957704 436.96582031 266.57373047 C430.90199382 257.85313321 424.81341689 249.15003556 418.71777344 240.45166016 C415.8103791 236.30213572 412.90531999 232.15097694 410 228 C408.83334425 226.33332569 407.66667759 224.66665902 406.5 223 C404.16666667 219.66666667 401.83333333 216.33333333 399.5 213 C398.92266113 212.1752417 398.34532227 211.3504834 397.75048828 210.50073242 C396.58215033 208.83165493 395.41385616 207.16254678 394.24560547 205.4934082 C391.35486511 201.36337662 388.46340146 197.23385554 385.5703125 193.10546875 C378.68271938 183.27499493 371.81705622 173.42957704 364.96582031 163.57373047 C358.90199382 154.85313321 352.81341689 146.15003556 346.71777344 137.45166016 C344.39525804 134.1368933 342.07427632 130.82105413 339.75341797 127.50512695 C338.58850972 125.84081012 337.42347157 124.17658421 336.25830078 122.51245117 C333.28990477 118.27277656 330.32320258 114.03193225 327.359375 109.7890625 C321.99469251 102.11173082 316.62516473 94.43839592 311.1875 86.8125 C310.77274414 86.23000488 310.35798828 85.64750977 309.93066406 85.04736328 C308.10176253 82.41169457 308.10176253 82.41169457 306 80 C303.92439194 79.90316419 301.84542796 79.87813098 299.76756287 79.87974548 C298.78010333 79.87846385 298.78010333 79.87846385 297.77269512 79.87715632 C295.55082894 79.8754997 293.32903705 79.88102582 291.10717773 79.88647461 C289.52084352 79.88675647 287.93450918 79.88659877 286.34817505 79.8860321 C282.02811278 79.88574408 277.70807803 79.89164163 273.38802218 79.89860606 C268.87831685 79.90483875 264.36861095 79.90544333 259.85890198 79.90663147 C251.31305626 79.90974504 242.76722326 79.91795876 234.22138315 79.92798096 C224.49482367 79.93914131 214.76826358 79.94465235 205.04169929 79.94967639 C185.02779241 79.96014136 165.01389701 79.97774129 145 80 Z " fill="#000000" transform="translate(0,0)"/>
</svg>
